<?xml version="1.0" standalone="no"?>
<svg xmlns="http://www.w3.org/2000/svg" xmlns:xlink="http://www.w3.org/1999/xlink" width="134pt" height="209pt" viewBox="0.00 0.00 134.00 208.80">
<g id="graph0" class="graph" transform="translate(4,204.8000030517578) scale(1)" data-name="">
<polygon fill="white" stroke="none" points="-4,4 -4,-204.8 130,-204.8 130,4 -4,4" style=""/>
<!-- \%1 -->
<g id="node1" class="node" pointer-events="visible" data-name="\%1">

<polygon fill="#f59c7d" fill-opacity="0.439216" stroke="#f59c7d" stroke-opacity="0.439216" points="36,-164.3 36,-200.3 90,-200.3 90,-164.3 36,-164.3" style=""/>
<text text-anchor="middle" x="62.83" y="-178.1" font-family="Times,serif" font-size="14.00" style="">%1</text>
</g>
<!-- \%6 -->
<g id="node2" class="node" pointer-events="visible" data-name="\%6">

<polygon fill="#f59c7d" fill-opacity="0.439216" stroke="#f59c7d" stroke-opacity="0.439216" points="0,-74.5 0,-110.5 54,-110.5 54,-74.5 0,-74.5" style=""/>
<text text-anchor="middle" x="26.83" y="-88.3" font-family="Times,serif" font-size="14.00" style="">%6</text>
</g>
<!-- \%1&#45;&gt;\%6 -->
<g id="edge1" class="edge" data-name="\%1-&gt;\%6">

<path fill="none" stroke="black" d="M53.65,-164.58C50.56,-158.73 47.23,-152.06 44.57,-145.8 41.21,-137.89 38.05,-129.1 35.36,-121.02" style=""/>
<polygon fill="black" stroke="black" points="38.75,-120.13 32.36,-111.67 32.08,-122.27 38.75,-120.13" style=""/>
<text text-anchor="middle" x="57.21" y="-133.2" font-family="Times,serif" font-size="14.00" style="">True</text>
</g>
<!-- \%7 -->
<g id="node3" class="node" pointer-events="visible" data-name="\%7">

<polygon fill="#f59c7d" fill-opacity="0.439216" stroke="#f59c7d" stroke-opacity="0.439216" points="72,-74.5 72,-110.5 126,-110.5 126,-74.5 72,-74.5" style=""/>
<text text-anchor="middle" x="98.83" y="-88.3" font-family="Times,serif" font-size="14.00" style="">%7</text>
</g>
<!-- \%1&#45;&gt;\%7 -->
<g id="edge2" class="edge" data-name="\%1-&gt;\%7">

<path fill="none" stroke="black" d="M69.94,-164.37C75.02,-151.98 82.02,-134.91 87.88,-120.63" style=""/>
<polygon fill="black" stroke="black" points="90.95,-122.36 91.51,-111.78 84.47,-119.7 90.95,-122.36" style=""/>
<text text-anchor="middle" x="98.78" y="-133.2" font-family="Times,serif" font-size="14.00" style="">False</text>
</g>
<!-- \%13 -->
<g id="node4" class="node" pointer-events="visible" data-name="\%13">

<polygon fill="#b70d28" fill-opacity="0.439216" stroke="#b70d28" stroke-opacity="0.439216" points="35,-0.5 35,-36.5 89,-36.5 89,-0.5 35,-0.5" style=""/>
<text text-anchor="middle" x="61.83" y="-14.3" font-family="Times,serif" font-size="14.00" style="">%13</text>
</g>
<!-- \%6&#45;&gt;\%13 -->
<g id="edge3" class="edge" data-name="\%6-&gt;\%13">

<path fill="none" stroke="black" d="M35.12,-74.8C39.23,-66.35 44.31,-55.88 48.95,-46.34" style=""/>
<polygon fill="black" stroke="black" points="52.04,-47.99 53.26,-37.47 45.74,-44.93 52.04,-47.99" style=""/>
</g>
<!-- \%7&#45;&gt;\%13 -->
<g id="edge4" class="edge" data-name="\%7-&gt;\%13">

<path fill="none" stroke="black" d="M90.42,-74.8C86.08,-66.35 80.7,-55.88 75.79,-46.34" style=""/>
<polygon fill="black" stroke="black" points="78.91,-44.75 71.23,-37.45 72.68,-47.95 78.91,-44.75" style=""/>
</g>
</g>
</svg>