<?xml version="1.0" standalone="no"?>
<svg xmlns="http://www.w3.org/2000/svg" xmlns:xlink="http://www.w3.org/1999/xlink" width="484pt" height="461pt" viewBox="0.00 0.00 483.56 460.80">
<g id="graph0" class="graph" transform="translate(9.082679748535156,448.6677074432373) scale(1)" data-name="">
<polygon fill="white" stroke="none" points="-4,4 -4,-456.8 479.56,-456.8 479.56,4 -4,4" style=""/>
<!-- 1 -->
<g id="node1" class="node" pointer-events="visible" data-name="1">

<polygon fill="#b70d28" fill-opacity="0.439216" stroke="#b70d28" stroke-opacity="0.439216" points="172.78,-326.7 172.78,-452.3 361.53,-452.3 361.53,-326.7 172.78,-326.7" style=""/>
<text text-anchor="middle" x="267.15" y="-435.7" font-family="Times,serif" font-size="14.00" style="">%1:</text>
<text text-anchor="middle" x="267.15" y="-418.9" font-family="Times,serif" font-size="14.00" style=""> %2 = alloca i32, align 4</text>
<text text-anchor="middle" x="267.15" y="-402.1" font-family="Times,serif" font-size="14.00" style=""> %3 = alloca i32, align 4</text>
<text text-anchor="middle" x="267.15" y="-385.3" font-family="Times,serif" font-size="14.00" style=""> store i32 %0, ptr %3, align 4</text>
<text text-anchor="middle" x="267.15" y="-368.5" font-family="Times,serif" font-size="14.00" style=""> %4 = load i32, ptr %3, align 4</text>
<text text-anchor="middle" x="267.15" y="-351.7" font-family="Times,serif" font-size="14.00" style=""> %5 = icmp eq i32 %4, 1</text>
<text text-anchor="middle" x="267.15" y="-334.9" font-family="Times,serif" font-size="14.00" style=""> br i1 %5, label %6, label %7</text>
</g>
<!-- 7 -->
<g id="node2" class="node" pointer-events="visible" data-name="7">

<polygon fill="#f59c7d" fill-opacity="0.439216" stroke="#f59c7d" stroke-opacity="0.439216" points="0,-113.7 0,-272.9 288.31,-272.9 288.31,-113.7 0,-113.7" style=""/>
<text text-anchor="middle" x="144.15" y="-256.3" font-family="Times,serif" font-size="14.00" style="">%7:</text>
<text text-anchor="middle" x="144.15" y="-239.5" font-family="Times,serif" font-size="14.00" style="">7: ; preds = %1</text>
<text text-anchor="middle" x="144.15" y="-222.7" font-family="Times,serif" font-size="14.00" style=""> %8 = load i32, ptr %3, align 4</text>
<text text-anchor="middle" x="144.15" y="-205.9" font-family="Times,serif" font-size="14.00" style=""> %9 = sub nsw i32 %8, 1</text>
<text text-anchor="middle" x="144.15" y="-189.1" font-family="Times,serif" font-size="14.00" style=""> %10 = call i32 @factorial_req(i32 noundef %9)</text>
<text text-anchor="middle" x="144.15" y="-172.3" font-family="Times,serif" font-size="14.00" style=""> %11 = load i32, ptr %3, align 4</text>
<text text-anchor="middle" x="144.15" y="-155.5" font-family="Times,serif" font-size="14.00" style=""> %12 = mul nsw i32 %10, %11</text>
<text text-anchor="middle" x="144.15" y="-138.7" font-family="Times,serif" font-size="14.00" style=""> store i32 %12, ptr %2, align 4</text>
<text text-anchor="middle" x="144.15" y="-121.9" font-family="Times,serif" font-size="14.00" style=""> br label %13</text>
</g>
<!-- 1&#45;&gt;7 -->
<g id="edge1" class="edge" data-name="1-&gt;7">

<path fill="none" stroke="black" d="M228.07,-326.79C219.04,-312.53 209.26,-297.1 199.68,-281.97" style=""/>
<polygon fill="black" stroke="black" points="202.87,-280.46 194.56,-273.88 196.95,-284.2 202.87,-280.46" style=""/>
<text text-anchor="middle" x="226.37" y="-295.6" font-family="Times,serif" font-size="14.00" style="">True</text>
</g>
<!-- 6 -->
<g id="node3" class="node" pointer-events="visible" data-name="6">

<polygon fill="#f59c7d" fill-opacity="0.439216" stroke="#f59c7d" stroke-opacity="0.439216" points="306.75,-155.7 306.75,-230.9 475.56,-230.9 475.56,-155.7 306.75,-155.7" style=""/>
<text text-anchor="middle" x="391.15" y="-214.3" font-family="Times,serif" font-size="14.00" style="">%6:</text>
<text text-anchor="middle" x="391.15" y="-197.5" font-family="Times,serif" font-size="14.00" style="">6: ; preds = %1</text>
<text text-anchor="middle" x="391.15" y="-180.7" font-family="Times,serif" font-size="14.00" style=""> store i32 1, ptr %2, align 4</text>
<text text-anchor="middle" x="391.15" y="-163.9" font-family="Times,serif" font-size="14.00" style=""> br label %13</text>
</g>
<!-- 1&#45;&gt;6 -->
<g id="edge2" class="edge" data-name="1-&gt;6">

<path fill="none" stroke="black" d="M306.56,-326.79C324.48,-298.72 345.32,-266.08 361.83,-240.22" style=""/>
<polygon fill="black" stroke="black" points="364.69,-242.26 367.12,-231.95 358.79,-238.49 364.69,-242.26" style=""/>
<text text-anchor="middle" x="343.93" y="-295.6" font-family="Times,serif" font-size="14.00" style="">False</text>
</g>
<!-- 13 -->
<g id="node4" class="node" pointer-events="visible" data-name="13">

<polygon fill="#b70d28" fill-opacity="0.439216" stroke="#b70d28" stroke-opacity="0.439216" points="169.28,-0.5 169.28,-75.7 365.03,-75.7 365.03,-0.5 169.28,-0.5" style=""/>
<text text-anchor="middle" x="267.15" y="-59.1" font-family="Times,serif" font-size="14.00" style="">%13:</text>
<text text-anchor="middle" x="267.15" y="-42.3" font-family="Times,serif" font-size="14.00" style="">13: ; preds = %7, %6</text>
<text text-anchor="middle" x="267.15" y="-25.5" font-family="Times,serif" font-size="14.00" style=""> %14 = load i32, ptr %2, align 4</text>
<text text-anchor="middle" x="267.15" y="-8.7" font-family="Times,serif" font-size="14.00" style=""> ret i32 %14</text>
</g>
<!-- 7&#45;&gt;13 -->
<g id="edge4" class="edge" data-name="7-&gt;13">

<path fill="none" stroke="black" d="M207.1,-113.9C215.25,-103.75 223.37,-93.64 230.88,-84.28" style=""/>
<polygon fill="black" stroke="black" points="233.39,-86.74 236.93,-76.75 227.94,-82.36 233.39,-86.74" style=""/>
</g>
<!-- 6&#45;&gt;13 -->
<g id="edge3" class="edge" data-name="6-&gt;13">

<path fill="none" stroke="black" d="M361.77,-155.99C344.44,-134.59 322.37,-107.32 303.9,-84.5" style=""/>
<polygon fill="black" stroke="black" points="306.72,-82.42 297.71,-76.85 301.28,-86.83 306.72,-82.42" style=""/>
</g>
</g>
</svg>